<svg width="88" height="24" viewBox="0 0 88 24" fill="none" xmlns="http://www.w3.org/2000/svg">
<path d="M0.924376 23V0.599998H3.16438V20.76H13.4524V23H0.924376ZM23.8971 0.599998H26.6811L34.8411 23H32.4571L30.7131 18.2H19.8811L18.1371 23H15.7531L23.8971 0.599998ZM20.6971 15.96H29.8811L25.2891 3.352L20.6971 15.96ZM36.7681 23L41.1041 0.599998H42.7361L49.0081 17.08L55.2481 0.599998H56.8801L61.2321 23H58.9441L55.6321 5.864L49.7121 21.528H48.2721L42.3521 5.864L39.0401 23H36.7681ZM71.3034 0.599998H74.0874L82.2474 23H79.8634L78.1194 18.2H67.2874L65.5434 23H63.1594L71.3034 0.599998ZM68.1034 15.96H77.2874L72.6954 3.352L68.1034 15.96ZM86.0796 23.416C85.7276 23.416 85.429 23.288 85.1836 23.032C84.9383 22.7867 84.8156 22.4827 84.8156 22.12C84.8156 21.7787 84.9383 21.4853 85.1836 21.24C85.429 20.984 85.7276 20.856 86.0796 20.856C86.4423 20.856 86.7463 20.984 86.9916 21.24C87.2476 21.4853 87.3756 21.7787 87.3756 22.12C87.3756 22.4827 87.2476 22.7867 86.9916 23.032C86.7463 23.288 86.4423 23.416 86.0796 23.416Z" fill="black"/>
</svg>
